HIERARCHY
ROOT Hips
{
 OFFSET 0.000000 0.000000 0.000000
 CHANNELS 6 Xposition Yposition Zposition Yrotation Xrotation Zrotation
 JOINT Chest
 {
  OFFSET 0.000000 9.585900 0.002600
  CHANNELS 3 Yrotation Xrotation Zrotation
  JOINT Chest2
  {
   OFFSET 0.000000 9.601200 -0.005300
   CHANNELS 3 Yrotation Xrotation Zrotation
   JOINT Chest3
   {
    OFFSET 0.000000 9.561800 0.000000
    CHANNELS 3 Yrotation Xrotation Zrotation
    JOINT Chest4
    {
     OFFSET 0.000000 9.552100 0.000000
     CHANNELS 3 Yrotation Xrotation Zrotation
     JOINT Neck
     {
      OFFSET 0.000000 14.453000 0.000000
      CHANNELS 3 Yrotation Xrotation Zrotation
      JOINT Head
      {
       OFFSET 0.000000 8.936500 -0.011300
       CHANNELS 3 Yrotation Xrotation Zrotation
       End Site
       {
        OFFSET 0.000000 17.073600 -0.006000
       }
      }
     }
     JOINT RightCollar
     {
      OFFSET -2.921100 9.558500 0.000000
      CHANNELS 3 Yrotation Xrotation Zrotation
      JOINT RightShoulder
      {
       OFFSET -13.519700 0.000000 0.000000
       CHANNELS 3 Yrotation Xrotation Zrotation
       JOINT RightElbow
       {
        OFFSET 0.000000 -29.696600 0.000000
        CHANNELS 3 Yrotation Xrotation Zrotation
        JOINT RightWrist
        {
         OFFSET 0.000000 -24.004700 0.000000
         CHANNELS 3 Yrotation Xrotation Zrotation
         End Site
         {
          OFFSET 0.000000 -17.728500 0.000000
         }
        }
       }
      }
     }
     JOINT LeftCollar
     {
      OFFSET 2.921100 9.558500 0.000000
      CHANNELS 3 Yrotation Xrotation Zrotation
      JOINT LeftShoulder
      {
       OFFSET 13.519700 0.000000 0.000000
       CHANNELS 3 Yrotation Xrotation Zrotation
       JOINT LeftElbow
       {
        OFFSET 0.000000 -29.696600 0.000000
        CHANNELS 3 Yrotation Xrotation Zrotation
        JOINT LeftWrist
        {
         OFFSET 0.000000 -24.004700 0.000000
         CHANNELS 3 Yrotation Xrotation Zrotation
         End Site
         {
          OFFSET 0.000000 -17.728500 0.000000
         }
        }
       }
      }
     }
    }
   }
  }
 }
 JOINT RightHip
 {
  OFFSET -7.771700 -0.012900 -0.001300
  CHANNELS 3 Yrotation Xrotation Zrotation
  JOINT RightKnee
  {
   OFFSET 0.000000 -40.869800 0.001200
   CHANNELS 3 Yrotation Xrotation Zrotation
   JOINT RightAnkle
   {
    OFFSET 0.000000 -39.717900 0.002100
    CHANNELS 3 Yrotation Xrotation Zrotation
    JOINT RightToe
    {
     OFFSET 0.000000 -4.965400 11.033500
     CHANNELS 3 Yrotation Xrotation Zrotation
     End Site
     {
      OFFSET 0.000000 -1.423100 5.872300
     }
    }
   }
  }
 }
 JOINT LeftHip
 {
  OFFSET 7.771700 -0.012900 -0.001300
  CHANNELS 3 Yrotation Xrotation Zrotation
  JOINT LeftKnee
  {
   OFFSET 0.000000 -40.869800 0.001200
   CHANNELS 3 Yrotation Xrotation Zrotation
   JOINT LeftAnkle
   {
    OFFSET 0.000000 -39.717900 0.002100
    CHANNELS 3 Yrotation Xrotation Zrotation
    JOINT LeftToe
    {
     OFFSET 0.000000 -4.965400 11.033500
     CHANNELS 3 Yrotation Xrotation Zrotation
     End Site
     {
      OFFSET 0.000000 -1.423100 5.872300
     }
    }
   }
  }
 }
}
MOTION
Frames: 7
Frame Time: 0.008333
0.000000 85.388000 0.000000 0.000000 -5.767877 0.000000 0.000000 11.653817 0.000000 0.000000 -5.885947 0.000000 0.000000 -0.000000 0.000000 0.000000 -0.000000 0.000000 0.000000 12.528835 0.000000 0.000000 0.711642 0.000000 0.000000 -0.000000 0.000000 0.000000 0.000000 -90.000000 0.000000 -2.309062 0.000000 0.000000 2.309062 0.000000 0.000000 -0.000000 0.000000 0.000000 -0.000000 90.000000 0.000000 -2.309062 0.000000 0.000000 2.309062 0.000000 0.000000 8.520406 0.000000 0.000000 1.905762 0.000000 -0.000000 -4.658285 0.000000 0.000000 -0.000000 0.000000 0.000000 8.520406 0.000000 0.000000 1.905762 0.000000 -0.000000 -4.658285 0.000000 0.000000 -0.000000 0.000000
-35.670541 56.373565 -5.532441 175.001947 -12.060165 -0.581123 2.040204 12.591062 0.119073 0.203602 0.965016 0.015904 0.282243 1.658057 0.055880 1.924682 11.467752 0.592833 1.830276 16.141166 2.538058 1.347129 -8.754757 2.251532 -0.627824 1.293449 0.887584 -1.007597 -8.396838 -6.261970 -90.233777 -59.428761 123.803199 -11.607322 2.189509 3.621968 -4.584629 -0.320814 1.694929 3.818945 -10.696960 5.192209 62.527497 -55.749995 -102.672742 9.222145 -23.564962 10.393544 -2.501487 -62.640429 17.158511 -37.813059 83.122343 -40.495089 -10.551917 -16.682604 11.710216 0.198233 -0.376144 0.072058 20.180148 -58.348620 -19.239841 71.628286 69.875123 73.028139 -6.270873 -15.440832 -0.135686 0.236209 0.583215 0.110577
-35.670268 56.373417 -5.532107 175.006231 -12.066521 -0.585290 1.995498 12.609028 0.129512 0.203440 0.962373 0.017275 0.276915 1.661665 0.057937 1.881854 11.493119 0.603899 1.910786 16.214571 2.423327 1.457695 -8.677906 2.112652 -0.593636 1.341341 0.874868 -1.031697 -8.803639 -6.320388 -90.938476 -59.434939 124.529487 -11.590773 2.082557 3.409306 -4.577981 -0.253617 1.661999 3.905193 -10.728947 5.143842 62.816463 -55.756702 -102.902299 9.212128 -23.574386 10.428160 -2.522475 -62.631355 17.169988 -37.737534 83.127443 -40.424477 -10.544945 -16.684536 11.711369 0.197566 -0.375832 0.069807 20.171173 -58.343444 -19.232903 71.619801 69.874210 73.024034 -6.272541 -15.440501 -0.138930 0.240758 0.586930 0.111644
-35.667858 56.373619 -5.533205 174.997181 -12.084712 -0.598267 1.964730 12.642559 0.152784 0.200710 0.961458 0.017022 0.221945 1.693315 0.081805 1.889486 11.495584 0.593236 1.988506 16.280657 2.309995 1.565100 -8.608457 1.975913 -0.554939 1.385422 0.857823 -1.042177 -9.220356 -6.373781 -91.660940 -59.455012 125.245591 -11.566020 1.971316 3.160517 -4.571062 -0.188618 1.629111 3.980054 -10.808465 5.111785 63.057565 -55.718112 -103.075000 9.201083 -23.570846 10.460668 -2.549441 -62.609846 17.199766 -37.699013 83.126729 -40.387532 -10.508825 -16.683740 11.704671 0.204844 -0.377927 0.070161 20.151395 -58.332745 -19.198107 71.648786 69.865226 73.060445 -6.285291 -15.448802 -0.146769 0.244798 0.590495 0.113122
-35.665974 56.373459 -5.532756 174.992203 -12.094944 -0.609277 1.928555 12.672619 0.174320 0.199568 0.960385 0.016538 0.216185 1.706481 0.085890 1.856315 11.522305 0.605408 2.061151 16.338151 2.198554 1.666761 -8.548004 1.842325 -0.512366 1.426903 0.839220 -1.042762 -9.647653 -6.422943 -92.382704 -59.482062 125.933973 -11.536377 1.853885 2.878395 -4.565556 -0.126778 1.598166 4.052019 -10.898812 5.080871 63.282629 -55.663818 -103.237873 9.194970 -23.556334 10.482749 -2.573041 -62.597747 17.221237 -37.712727 83.119366 -40.395118 -10.485929 -16.683135 11.695456 0.211737 -0.377371 0.074782 20.132915 -58.330490 -19.170089 71.662353 69.864448 73.076244 -6.283997 -15.448953 -0.150096 0.245763 0.590419 0.112521
-35.666495 56.373280 -5.532319 174.981623 -12.105794 -0.604451 1.896828 12.707061 0.182763 0.192280 0.962045 0.016836 0.228036 1.708753 0.082388 1.816690 11.562015 0.624557 2.127861 16.387771 2.088765 1.761809 -8.495851 1.711842 -0.468294 1.467051 0.821369 -1.033902 -10.082614 -6.469297 -93.082966 -59.509362 126.582944 -11.504196 1.734263 2.565292 -4.560568 -0.066237 1.568378 4.123493 -11.011438 5.052104 63.474125 -55.596652 -103.373429 9.195780 -23.536059 10.498835 -2.559659 -62.587071 17.218377 -37.763728 83.109523 -40.437474 -10.542437 -16.683682 11.712983 0.212530 -0.369390 0.067509 20.139894 -58.322531 -19.165677 71.676065 69.862733 73.089812 -6.290060 -15.442817 -0.150769 0.248357 0.587115 0.112328
-35.666198 56.373309 -5.532297 174.970421 -12.121489 -0.604191 1.888626 12.734950 0.191352 0.131125 1.010615 0.050136 0.295965 1.657686 0.042986 1.762403 11.623946 0.659642 2.181016 16.375727 2.003558 1.857359 -8.393033 1.558859 -0.423433 1.507088 0.801197 -1.016485 -10.520979 -6.510221 -93.750458 -59.529986 127.185729 -11.475083 1.622259 2.223275 -4.556537 -0.003164 1.535437 4.191328 -11.132209 5.026398 63.576801 -55.565481 -103.451074 9.218327 -23.566195 10.517629 -2.555456 -62.571748 17.222461 -37.790428 83.103327 -40.460802 -10.554516 -16.680734 11.717019 0.190075 -0.373959 0.069654 20.138428 -58.309715 -19.150825 71.670362 69.871053 73.086533 -6.282293 -15.438607 -0.152668 0.248478 0.585427 0.112299
